<mxfile host="app.diagrams.net" modified="2021-01-04T14:57:38.234Z" agent="5.0 (Windows NT 10.0; Win64; x64) AppleWebKit/537.36 (KHTML, like Gecko) Chrome/87.0.4280.88 Safari/537.36" etag="xBapzAFrzdmgvj-AuJLH" version="13.10.4" type="github" pages="2">
  <diagram id="di-ddq-g-4reDUPYfn3K" name="Neuronio">
    <mxGraphModel dx="1038" dy="523" grid="1" gridSize="10" guides="1" tooltips="1" connect="1" arrows="1" fold="1" page="1" pageScale="1" pageWidth="827" pageHeight="1169" math="0" shadow="0">
      <root>
        <mxCell id="0" />
        <mxCell id="1" parent="0" />
        <mxCell id="HnycrJeS-ZUGLE_cSRpv-1" value="" style="ellipse;whiteSpace=wrap;html=1;aspect=fixed;" vertex="1" parent="1">
          <mxGeometry x="360" y="200" width="120" height="120" as="geometry" />
        </mxCell>
        <mxCell id="HnycrJeS-ZUGLE_cSRpv-2" value="" style="endArrow=none;html=1;entryX=0.5;entryY=0;entryDx=0;entryDy=0;exitX=0.5;exitY=1;exitDx=0;exitDy=0;" edge="1" parent="1" source="HnycrJeS-ZUGLE_cSRpv-1" target="HnycrJeS-ZUGLE_cSRpv-1">
          <mxGeometry width="50" height="50" relative="1" as="geometry">
            <mxPoint x="390" y="320" as="sourcePoint" />
            <mxPoint x="440" y="270" as="targetPoint" />
          </mxGeometry>
        </mxCell>
        <mxCell id="HnycrJeS-ZUGLE_cSRpv-3" value="&lt;i&gt;&lt;font style=&quot;font-size: 15px&quot;&gt;b&lt;/font&gt;&lt;/i&gt;" style="ellipse;whiteSpace=wrap;html=1;aspect=fixed;" vertex="1" parent="1">
          <mxGeometry x="405" y="340" width="30" height="30" as="geometry" />
        </mxCell>
        <mxCell id="HnycrJeS-ZUGLE_cSRpv-4" value="" style="endArrow=block;html=1;exitX=0.5;exitY=0;exitDx=0;exitDy=0;entryX=0.5;entryY=1;entryDx=0;entryDy=0;endFill=1;" edge="1" parent="1" source="HnycrJeS-ZUGLE_cSRpv-3" target="HnycrJeS-ZUGLE_cSRpv-1">
          <mxGeometry width="50" height="50" relative="1" as="geometry">
            <mxPoint x="390" y="320" as="sourcePoint" />
            <mxPoint x="440" y="270" as="targetPoint" />
          </mxGeometry>
        </mxCell>
        <mxCell id="HnycrJeS-ZUGLE_cSRpv-28" value="" style="endArrow=block;html=1;endFill=1;" edge="1" parent="1">
          <mxGeometry relative="1" as="geometry">
            <mxPoint x="240" y="160" as="sourcePoint" />
            <mxPoint x="360" y="259.5" as="targetPoint" />
          </mxGeometry>
        </mxCell>
        <mxCell id="HnycrJeS-ZUGLE_cSRpv-29" value="W&lt;sub&gt;1&lt;/sub&gt;" style="edgeLabel;resizable=0;html=1;align=center;verticalAlign=middle;" connectable="0" vertex="1" parent="HnycrJeS-ZUGLE_cSRpv-28">
          <mxGeometry relative="1" as="geometry" />
        </mxCell>
        <mxCell id="HnycrJeS-ZUGLE_cSRpv-30" value="X&lt;sub&gt;1&lt;/sub&gt;" style="edgeLabel;resizable=0;html=1;align=left;verticalAlign=bottom;" connectable="0" vertex="1" parent="HnycrJeS-ZUGLE_cSRpv-28">
          <mxGeometry x="-1" relative="1" as="geometry" />
        </mxCell>
        <mxCell id="HnycrJeS-ZUGLE_cSRpv-31" value="" style="endArrow=none;html=1;endFill=0;" edge="1" parent="1">
          <mxGeometry relative="1" as="geometry">
            <mxPoint x="240" y="200" as="sourcePoint" />
            <mxPoint x="360" y="260" as="targetPoint" />
          </mxGeometry>
        </mxCell>
        <mxCell id="HnycrJeS-ZUGLE_cSRpv-32" value="W&lt;sub&gt;2&lt;/sub&gt;" style="edgeLabel;resizable=0;html=1;align=center;verticalAlign=middle;" connectable="0" vertex="1" parent="HnycrJeS-ZUGLE_cSRpv-31">
          <mxGeometry relative="1" as="geometry" />
        </mxCell>
        <mxCell id="HnycrJeS-ZUGLE_cSRpv-33" value="X&lt;sub&gt;2&lt;/sub&gt;" style="edgeLabel;resizable=0;html=1;align=left;verticalAlign=bottom;" connectable="0" vertex="1" parent="HnycrJeS-ZUGLE_cSRpv-31">
          <mxGeometry x="-1" relative="1" as="geometry" />
        </mxCell>
        <mxCell id="HnycrJeS-ZUGLE_cSRpv-34" value="" style="endArrow=none;html=1;entryX=0;entryY=0.5;entryDx=0;entryDy=0;endFill=0;" edge="1" parent="1" target="HnycrJeS-ZUGLE_cSRpv-1">
          <mxGeometry relative="1" as="geometry">
            <mxPoint x="240" y="240" as="sourcePoint" />
            <mxPoint x="370" y="270" as="targetPoint" />
          </mxGeometry>
        </mxCell>
        <mxCell id="HnycrJeS-ZUGLE_cSRpv-35" value="W&lt;sub&gt;3&lt;/sub&gt;" style="edgeLabel;resizable=0;html=1;align=center;verticalAlign=middle;" connectable="0" vertex="1" parent="HnycrJeS-ZUGLE_cSRpv-34">
          <mxGeometry relative="1" as="geometry" />
        </mxCell>
        <mxCell id="HnycrJeS-ZUGLE_cSRpv-36" value="X&lt;sub&gt;3&lt;/sub&gt;" style="edgeLabel;resizable=0;html=1;align=left;verticalAlign=bottom;" connectable="0" vertex="1" parent="HnycrJeS-ZUGLE_cSRpv-34">
          <mxGeometry x="-1" relative="1" as="geometry" />
        </mxCell>
        <mxCell id="HnycrJeS-ZUGLE_cSRpv-43" value="" style="endArrow=block;html=1;entryX=0;entryY=0.5;entryDx=0;entryDy=0;endFill=1;" edge="1" parent="1" target="HnycrJeS-ZUGLE_cSRpv-1">
          <mxGeometry relative="1" as="geometry">
            <mxPoint x="240" y="360" as="sourcePoint" />
            <mxPoint x="370" y="270" as="targetPoint" />
          </mxGeometry>
        </mxCell>
        <mxCell id="HnycrJeS-ZUGLE_cSRpv-44" value="W&lt;sub&gt;n&lt;/sub&gt;" style="edgeLabel;resizable=0;html=1;align=center;verticalAlign=middle;" connectable="0" vertex="1" parent="HnycrJeS-ZUGLE_cSRpv-43">
          <mxGeometry relative="1" as="geometry" />
        </mxCell>
        <mxCell id="HnycrJeS-ZUGLE_cSRpv-45" value="X&lt;sub&gt;n&lt;/sub&gt;" style="edgeLabel;resizable=0;html=1;align=left;verticalAlign=bottom;" connectable="0" vertex="1" parent="HnycrJeS-ZUGLE_cSRpv-43">
          <mxGeometry x="-1" relative="1" as="geometry" />
        </mxCell>
        <mxCell id="HnycrJeS-ZUGLE_cSRpv-46" value="&lt;span style=&quot;font-size: 16px&quot;&gt;&lt;b&gt;.&amp;nbsp; &amp;nbsp;.&amp;nbsp; &amp;nbsp;.&amp;nbsp; &amp;nbsp;.&amp;nbsp; &amp;nbsp;.&amp;nbsp; &amp;nbsp;.&lt;/b&gt;&lt;/span&gt;" style="text;html=1;align=center;verticalAlign=bottom;resizable=0;points=[];autosize=1;rotation=90;" vertex="1" parent="1">
          <mxGeometry x="193" y="283" width="110" height="20" as="geometry" />
        </mxCell>
        <mxCell id="HnycrJeS-ZUGLE_cSRpv-47" value="" style="endArrow=none;dashed=1;html=1;entryX=0;entryY=0.5;entryDx=0;entryDy=0;" edge="1" parent="1" target="HnycrJeS-ZUGLE_cSRpv-1">
          <mxGeometry width="50" height="50" relative="1" as="geometry">
            <mxPoint x="260" y="280" as="sourcePoint" />
            <mxPoint x="440" y="190" as="targetPoint" />
          </mxGeometry>
        </mxCell>
        <mxCell id="HnycrJeS-ZUGLE_cSRpv-48" value="" style="endArrow=none;dashed=1;html=1;entryX=0;entryY=0.5;entryDx=0;entryDy=0;" edge="1" parent="1" target="HnycrJeS-ZUGLE_cSRpv-1">
          <mxGeometry width="50" height="50" relative="1" as="geometry">
            <mxPoint x="260" y="310" as="sourcePoint" />
            <mxPoint x="440" y="190" as="targetPoint" />
          </mxGeometry>
        </mxCell>
        <mxCell id="HnycrJeS-ZUGLE_cSRpv-49" value="&lt;span style=&quot;font-size: 20px;&quot;&gt;Y&lt;/span&gt;" style="text;html=1;align=center;verticalAlign=middle;resizable=0;points=[];autosize=1;fontSize=20;fontStyle=2" vertex="1" parent="1">
          <mxGeometry x="573" y="245" width="30" height="30" as="geometry" />
        </mxCell>
        <mxCell id="HnycrJeS-ZUGLE_cSRpv-50" value="" style="endArrow=classic;html=1;fontSize=17;exitX=1;exitY=0.5;exitDx=0;exitDy=0;" edge="1" parent="1" source="HnycrJeS-ZUGLE_cSRpv-1" target="HnycrJeS-ZUGLE_cSRpv-49">
          <mxGeometry relative="1" as="geometry">
            <mxPoint x="500" y="220" as="sourcePoint" />
            <mxPoint x="600" y="220" as="targetPoint" />
          </mxGeometry>
        </mxCell>
        <mxCell id="HnycrJeS-ZUGLE_cSRpv-51" value="&lt;i style=&quot;font-size: 18px;&quot;&gt;&lt;b style=&quot;font-size: 18px;&quot;&gt;&lt;font style=&quot;font-size: 18px;&quot;&gt;SaÃ­da&lt;/font&gt;&lt;/b&gt;&lt;/i&gt;" style="edgeLabel;resizable=0;html=1;align=center;verticalAlign=middle;fontSize=18;" connectable="0" vertex="1" parent="HnycrJeS-ZUGLE_cSRpv-50">
          <mxGeometry relative="1" as="geometry" />
        </mxCell>
        <mxCell id="HnycrJeS-ZUGLE_cSRpv-52" value="Entradas" style="text;html=1;strokeColor=none;fillColor=none;align=center;verticalAlign=middle;whiteSpace=wrap;rounded=0;fontSize=18;rotation=270;fontStyle=3" vertex="1" parent="1">
          <mxGeometry x="198" y="250" width="40" height="20" as="geometry" />
        </mxCell>
        <mxCell id="HnycrJeS-ZUGLE_cSRpv-53" value="&lt;i style=&quot;font-size: 18px;&quot;&gt;&lt;b style=&quot;font-size: 18px;&quot;&gt;&lt;font style=&quot;font-size: 18px;&quot;&gt;Pesos&lt;/font&gt;&lt;/b&gt;&lt;/i&gt;" style="text;html=1;align=center;verticalAlign=middle;resizable=0;points=[];autosize=1;fontSize=18;" vertex="1" parent="1">
          <mxGeometry x="280" y="140" width="70" height="30" as="geometry" />
        </mxCell>
        <mxCell id="HnycrJeS-ZUGLE_cSRpv-56" value="" style="shape=image;verticalLabelPosition=bottom;verticalAlign=top;imageAspect=0;image=https://upload.wikimedia.org/wikipedia/commons/e/e7/Greek_uc_sigma.svg;fontSize=15;aspect=fixed;" vertex="1" parent="1">
          <mxGeometry x="380" y="245" width="30" height="30" as="geometry" />
        </mxCell>
        <mxCell id="HnycrJeS-ZUGLE_cSRpv-57" value="" style="shape=image;verticalLabelPosition=bottom;verticalAlign=top;imageAspect=0;image=https://upload.wikimedia.org/wikipedia/commons/a/a7/Greek_lc_theta.svg;fontSize=15;aspect=fixed;" vertex="1" parent="1">
          <mxGeometry x="430" y="245" width="30" height="30" as="geometry" />
        </mxCell>
      </root>
    </mxGraphModel>
  </diagram>
  <diagram id="MBBhFVVPc2reDjde32ZM" name="Page-2">
    <mxGraphModel dx="1236" dy="824" grid="1" gridSize="10" guides="1" tooltips="1" connect="1" arrows="1" fold="1" page="1" pageScale="1" pageWidth="827" pageHeight="1169" math="0" shadow="0">
      <root>
        <mxCell id="addXvdbC5FpWuwhUtbPb-0" />
        <mxCell id="addXvdbC5FpWuwhUtbPb-1" parent="addXvdbC5FpWuwhUtbPb-0" />
        <mxCell id="addXvdbC5FpWuwhUtbPb-2" value="&lt;font style=&quot;font-size: 15px&quot;&gt;&lt;b&gt;TransferÃªncia de Aprendizado&lt;/b&gt;&lt;/font&gt;" style="rounded=1;whiteSpace=wrap;html=1;fontSize=20;fillColor=#ffd09c;" vertex="1" parent="addXvdbC5FpWuwhUtbPb-1">
          <mxGeometry x="40" y="280" width="160" height="80" as="geometry" />
        </mxCell>
        <mxCell id="addXvdbC5FpWuwhUtbPb-9" value="TransferÃªncia de Aprendizado &lt;b&gt;NÃ£o-Supervisionado&lt;/b&gt;" style="rounded=0;whiteSpace=wrap;html=1;fontSize=13;fillColor=#ffd09c;strokeColor=#CC6600;" vertex="1" parent="addXvdbC5FpWuwhUtbPb-1">
          <mxGeometry x="400" y="480" width="200" height="60" as="geometry" />
        </mxCell>
        <mxCell id="addXvdbC5FpWuwhUtbPb-10" value="TransferÃªncia de Aprendizado &lt;b&gt;Transdutivo&lt;/b&gt;" style="rounded=0;whiteSpace=wrap;html=1;fontSize=13;fillColor=#ffd09c;strokeColor=#CC6600;" vertex="1" parent="addXvdbC5FpWuwhUtbPb-1">
          <mxGeometry x="440" y="290" width="200" height="60" as="geometry" />
        </mxCell>
        <mxCell id="addXvdbC5FpWuwhUtbPb-11" value="TransferÃªncia de Aprendizado &lt;b&gt;Indutivo&lt;/b&gt;" style="rounded=0;whiteSpace=wrap;html=1;fontSize=13;fillColor=#ffd09c;strokeColor=#CC6600;" vertex="1" parent="addXvdbC5FpWuwhUtbPb-1">
          <mxGeometry x="400" y="76" width="200" height="60" as="geometry" />
        </mxCell>
        <mxCell id="addXvdbC5FpWuwhUtbPb-12" value="" style="endArrow=classic;html=1;fontSize=13;exitX=0.75;exitY=1;exitDx=0;exitDy=0;entryX=0;entryY=0.5;entryDx=0;entryDy=0;" edge="1" parent="addXvdbC5FpWuwhUtbPb-1" source="addXvdbC5FpWuwhUtbPb-2" target="addXvdbC5FpWuwhUtbPb-9">
          <mxGeometry width="50" height="50" relative="1" as="geometry">
            <mxPoint x="250" y="330" as="sourcePoint" />
            <mxPoint x="300" y="280" as="targetPoint" />
          </mxGeometry>
        </mxCell>
        <mxCell id="addXvdbC5FpWuwhUtbPb-8" value="&lt;font style=&quot;font-size: 13px&quot;&gt;NÃ£o hÃ¡ dados rotulados no domÃ­nio de origem e no domÃ­nio alvo&lt;/font&gt;" style="rounded=0;whiteSpace=wrap;html=1;fontSize=13;fillColor=#cdfffe;dashed=1;strokeColor=#3333FF;" vertex="1" parent="addXvdbC5FpWuwhUtbPb-1">
          <mxGeometry x="180" y="400" width="170" height="60" as="geometry" />
        </mxCell>
        <mxCell id="addXvdbC5FpWuwhUtbPb-13" value="" style="endArrow=classic;html=1;fontSize=13;exitX=1;exitY=0.5;exitDx=0;exitDy=0;entryX=0;entryY=0.5;entryDx=0;entryDy=0;" edge="1" parent="addXvdbC5FpWuwhUtbPb-1" source="addXvdbC5FpWuwhUtbPb-7" target="addXvdbC5FpWuwhUtbPb-10">
          <mxGeometry width="50" height="50" relative="1" as="geometry">
            <mxPoint x="310" y="330" as="sourcePoint" />
            <mxPoint x="360" y="280" as="targetPoint" />
          </mxGeometry>
        </mxCell>
        <mxCell id="addXvdbC5FpWuwhUtbPb-14" value="" style="endArrow=classic;html=1;fontSize=13;exitX=0.75;exitY=0;exitDx=0;exitDy=0;entryX=0;entryY=0.5;entryDx=0;entryDy=0;" edge="1" parent="addXvdbC5FpWuwhUtbPb-1" source="addXvdbC5FpWuwhUtbPb-2" target="addXvdbC5FpWuwhUtbPb-11">
          <mxGeometry width="50" height="50" relative="1" as="geometry">
            <mxPoint x="310" y="330" as="sourcePoint" />
            <mxPoint x="360" y="280" as="targetPoint" />
          </mxGeometry>
        </mxCell>
        <mxCell id="addXvdbC5FpWuwhUtbPb-6" value="&lt;font style=&quot;font-size: 13px;&quot;&gt;Dados rotulados estÃ£o disponÃ­veis no domÃ­nio alvo&lt;/font&gt;" style="rounded=0;whiteSpace=wrap;html=1;fontSize=13;fillColor=#cdfffe;dashed=1;strokeColor=#3333FF;" vertex="1" parent="addXvdbC5FpWuwhUtbPb-1">
          <mxGeometry x="180" y="200" width="170" height="40" as="geometry" />
        </mxCell>
        <mxCell id="addXvdbC5FpWuwhUtbPb-7" value="&lt;font style=&quot;font-size: 13px&quot;&gt;Dados rotulados estÃ£o disponÃ­veis somente no domÃ­nio de origem&lt;/font&gt;" style="rounded=0;whiteSpace=wrap;html=1;fontSize=13;fillColor=#cdfffe;dashed=1;strokeColor=#3333FF;" vertex="1" parent="addXvdbC5FpWuwhUtbPb-1">
          <mxGeometry x="240" y="295" width="160" height="50" as="geometry" />
        </mxCell>
        <mxCell id="addXvdbC5FpWuwhUtbPb-16" value="" style="endArrow=classic;html=1;fontSize=13;exitX=1;exitY=0.5;exitDx=0;exitDy=0;entryX=0;entryY=0.5;entryDx=0;entryDy=0;" edge="1" parent="addXvdbC5FpWuwhUtbPb-1" source="addXvdbC5FpWuwhUtbPb-2" target="addXvdbC5FpWuwhUtbPb-7">
          <mxGeometry width="50" height="50" relative="1" as="geometry">
            <mxPoint x="200" y="320" as="sourcePoint" />
            <mxPoint x="530" y="320" as="targetPoint" />
          </mxGeometry>
        </mxCell>
        <mxCell id="addXvdbC5FpWuwhUtbPb-19" value="Caso 1" style="rounded=0;whiteSpace=wrap;html=1;fontSize=13;fillColor=#ffd09c;strokeColor=#CC6600;" vertex="1" parent="addXvdbC5FpWuwhUtbPb-1">
          <mxGeometry x="827" y="6" width="80" height="40" as="geometry" />
        </mxCell>
        <mxCell id="addXvdbC5FpWuwhUtbPb-20" value="Aprendizado Autodidata" style="rounded=0;whiteSpace=wrap;html=1;fontSize=13;fillColor=#ffff9b;strokeColor=#FFB570;" vertex="1" parent="addXvdbC5FpWuwhUtbPb-1">
          <mxGeometry x="1000" y="6" width="120" height="40" as="geometry" />
        </mxCell>
        <mxCell id="addXvdbC5FpWuwhUtbPb-21" value="" style="endArrow=classic;html=1;fontSize=13;exitX=1;exitY=0.25;exitDx=0;exitDy=0;entryX=0;entryY=0.5;entryDx=0;entryDy=0;" edge="1" parent="addXvdbC5FpWuwhUtbPb-1" source="addXvdbC5FpWuwhUtbPb-11" target="addXvdbC5FpWuwhUtbPb-19">
          <mxGeometry width="50" height="50" relative="1" as="geometry">
            <mxPoint x="590" y="-64" as="sourcePoint" />
            <mxPoint x="640" y="-114" as="targetPoint" />
          </mxGeometry>
        </mxCell>
        <mxCell id="addXvdbC5FpWuwhUtbPb-17" value="&lt;font style=&quot;font-size: 13px&quot;&gt;NÃ£o hÃ¡ dados rotulados no domÃ­nio de origem&lt;/font&gt;" style="rounded=0;whiteSpace=wrap;html=1;fontSize=13;fillColor=#cdfffe;dashed=1;strokeColor=#3333FF;" vertex="1" parent="addXvdbC5FpWuwhUtbPb-1">
          <mxGeometry x="630" y="46" width="170" height="40" as="geometry" />
        </mxCell>
        <mxCell id="addXvdbC5FpWuwhUtbPb-22" value="" style="endArrow=classic;html=1;fontSize=13;exitX=1;exitY=0.25;exitDx=0;exitDy=0;entryX=0;entryY=0.25;entryDx=0;entryDy=0;" edge="1" parent="addXvdbC5FpWuwhUtbPb-1" source="addXvdbC5FpWuwhUtbPb-19" target="addXvdbC5FpWuwhUtbPb-20">
          <mxGeometry width="50" height="50" relative="1" as="geometry">
            <mxPoint x="950" y="6" as="sourcePoint" />
            <mxPoint x="980" y="-34" as="targetPoint" />
          </mxGeometry>
        </mxCell>
        <mxCell id="addXvdbC5FpWuwhUtbPb-24" value="" style="endArrow=classic;html=1;fontSize=13;exitX=0;exitY=0.75;exitDx=0;exitDy=0;entryX=1;entryY=0.75;entryDx=0;entryDy=0;" edge="1" parent="addXvdbC5FpWuwhUtbPb-1" source="addXvdbC5FpWuwhUtbPb-20" target="addXvdbC5FpWuwhUtbPb-19">
          <mxGeometry width="50" height="50" relative="1" as="geometry">
            <mxPoint x="917" y="-34" as="sourcePoint" />
            <mxPoint x="1000" y="-36.5" as="targetPoint" />
          </mxGeometry>
        </mxCell>
        <mxCell id="addXvdbC5FpWuwhUtbPb-25" value="Caso 2" style="rounded=0;whiteSpace=wrap;html=1;fontSize=13;fillColor=#ffd09c;strokeColor=#CC6600;" vertex="1" parent="addXvdbC5FpWuwhUtbPb-1">
          <mxGeometry x="827" y="186" width="80" height="40" as="geometry" />
        </mxCell>
        <mxCell id="addXvdbC5FpWuwhUtbPb-26" value="Aprendizado Autodidata" style="rounded=0;whiteSpace=wrap;html=1;fontSize=13;fillColor=#ffff9b;strokeColor=#FFB570;" vertex="1" parent="addXvdbC5FpWuwhUtbPb-1">
          <mxGeometry x="1150" y="186" width="120" height="40" as="geometry" />
        </mxCell>
        <mxCell id="addXvdbC5FpWuwhUtbPb-30" value="" style="endArrow=classic;html=1;fontSize=13;exitX=1;exitY=0.5;exitDx=0;exitDy=0;entryX=0;entryY=0.5;entryDx=0;entryDy=0;" edge="1" parent="addXvdbC5FpWuwhUtbPb-1" source="addXvdbC5FpWuwhUtbPb-25" target="addXvdbC5FpWuwhUtbPb-26">
          <mxGeometry width="50" height="50" relative="1" as="geometry">
            <mxPoint x="938" y="186" as="sourcePoint" />
            <mxPoint x="1215" y="76" as="targetPoint" />
          </mxGeometry>
        </mxCell>
        <mxCell id="addXvdbC5FpWuwhUtbPb-29" value="&lt;font style=&quot;font-size: 13px&quot;&gt;Tarefas alvo e origem sÃ£o aprendidas simultaneamente&lt;/font&gt;" style="rounded=0;whiteSpace=wrap;html=1;fontSize=13;fillColor=#cdfffe;dashed=1;strokeColor=#3333FF;" vertex="1" parent="addXvdbC5FpWuwhUtbPb-1">
          <mxGeometry x="959" y="181" width="153" height="50" as="geometry" />
        </mxCell>
        <mxCell id="addXvdbC5FpWuwhUtbPb-31" value="" style="endArrow=classic;html=1;fontSize=13;exitX=1;exitY=0.75;exitDx=0;exitDy=0;entryX=0;entryY=0.5;entryDx=0;entryDy=0;" edge="1" parent="addXvdbC5FpWuwhUtbPb-1" source="addXvdbC5FpWuwhUtbPb-11" target="addXvdbC5FpWuwhUtbPb-25">
          <mxGeometry width="50" height="50" relative="1" as="geometry">
            <mxPoint x="600" y="126" as="sourcePoint" />
            <mxPoint x="877" y="16" as="targetPoint" />
          </mxGeometry>
        </mxCell>
        <mxCell id="addXvdbC5FpWuwhUtbPb-18" value="&lt;font style=&quot;font-size: 13px&quot;&gt;Dados rotulados estÃ£o disponÃ­veis no domÃ­nio de origem&lt;/font&gt;" style="rounded=0;whiteSpace=wrap;html=1;fontSize=13;fillColor=#cdfffe;dashed=1;strokeColor=#3333FF;" vertex="1" parent="addXvdbC5FpWuwhUtbPb-1">
          <mxGeometry x="630" y="136" width="170" height="50" as="geometry" />
        </mxCell>
        <mxCell id="addXvdbC5FpWuwhUtbPb-35" value="AdaptaÃ§Ã£o de DomÃ­nio" style="rounded=0;whiteSpace=wrap;html=1;fontSize=13;fillColor=#ffff9b;strokeColor=#FFB570;" vertex="1" parent="addXvdbC5FpWuwhUtbPb-1">
          <mxGeometry x="880" y="290" width="120" height="60" as="geometry" />
        </mxCell>
        <mxCell id="addXvdbC5FpWuwhUtbPb-36" value="" style="endArrow=classic;html=1;fontSize=13;entryX=0;entryY=0.25;entryDx=0;entryDy=0;exitX=1;exitY=0.25;exitDx=0;exitDy=0;" edge="1" parent="addXvdbC5FpWuwhUtbPb-1" source="addXvdbC5FpWuwhUtbPb-10" target="addXvdbC5FpWuwhUtbPb-35">
          <mxGeometry width="50" height="50" relative="1" as="geometry">
            <mxPoint x="839.9999999999998" y="270" as="sourcePoint" />
            <mxPoint x="920" y="305" as="targetPoint" />
          </mxGeometry>
        </mxCell>
        <mxCell id="addXvdbC5FpWuwhUtbPb-37" value="" style="endArrow=classic;html=1;fontSize=13;exitX=0;exitY=0.75;exitDx=0;exitDy=0;entryX=1;entryY=0.75;entryDx=0;entryDy=0;" edge="1" parent="addXvdbC5FpWuwhUtbPb-1" source="addXvdbC5FpWuwhUtbPb-35" target="addXvdbC5FpWuwhUtbPb-10">
          <mxGeometry width="50" height="50" relative="1" as="geometry">
            <mxPoint x="930.0000000000002" y="320" as="sourcePoint" />
            <mxPoint x="650" y="315" as="targetPoint" />
          </mxGeometry>
        </mxCell>
        <mxCell id="addXvdbC5FpWuwhUtbPb-34" value="Premissa: diferentes domÃ­nios, mas tarefa Ãºnica" style="rounded=0;whiteSpace=wrap;html=1;fontSize=13;fillColor=#cdfffe;dashed=1;strokeColor=#3333FF;" vertex="1" parent="addXvdbC5FpWuwhUtbPb-1">
          <mxGeometry x="680" y="290" width="160" height="60" as="geometry" />
        </mxCell>
        <mxCell id="addXvdbC5FpWuwhUtbPb-38" value="ViÃ©s de SeleÃ§Ã£o de Amostras&amp;nbsp; / MudanÃ§a de CovariÃ¢ncia" style="rounded=0;whiteSpace=wrap;html=1;fontSize=13;fillColor=#ffff9b;strokeColor=#FFB570;" vertex="1" parent="addXvdbC5FpWuwhUtbPb-1">
          <mxGeometry x="880" y="420" width="170" height="60" as="geometry" />
        </mxCell>
        <mxCell id="addXvdbC5FpWuwhUtbPb-40" value="" style="endArrow=classic;html=1;fontSize=13;exitX=0.75;exitY=1;exitDx=0;exitDy=0;entryX=0;entryY=0.5;entryDx=0;entryDy=0;" edge="1" parent="addXvdbC5FpWuwhUtbPb-1" source="addXvdbC5FpWuwhUtbPb-10" target="addXvdbC5FpWuwhUtbPb-38">
          <mxGeometry width="50" height="50" relative="1" as="geometry">
            <mxPoint x="630" y="350.0000000000001" as="sourcePoint" />
            <mxPoint x="857" y="435" as="targetPoint" />
          </mxGeometry>
        </mxCell>
        <mxCell id="addXvdbC5FpWuwhUtbPb-39" value="Premissa: domÃ­nio Ãºnico e tarefa Ãºnica" style="rounded=0;whiteSpace=wrap;html=1;fontSize=13;fillColor=#cdfffe;dashed=1;strokeColor=#3333FF;" vertex="1" parent="addXvdbC5FpWuwhUtbPb-1">
          <mxGeometry x="680" y="390" width="160" height="50" as="geometry" />
        </mxCell>
      </root>
    </mxGraphModel>
  </diagram>
</mxfile>
